<?xml version="1.0" encoding="UTF-8" standalone="no"?>
<!DOCTYPE svg PUBLIC "-//W3C//DTD SVG 1.1//EN"
 "http://www.w3.org/Graphics/SVG/1.1/DTD/svg11.dtd">
<!-- Generated by graphviz version 2.40.1 (20161225.0304)
 -->
<!-- Title: dependencies Pages: 1 -->
<svg width="901pt" height="284pt"
 viewBox="0.00 0.00 901.00 284.00" xmlns="http://www.w3.org/2000/svg" xmlns:xlink="http://www.w3.org/1999/xlink">
<g id="graph0" class="graph" transform="scale(1 1) rotate(0) translate(4 280)">
<title>dependencies</title>
<polygon fill="#ffffff" stroke="transparent" points="-4,4 -4,-280 897,-280 897,4 -4,4"/>
<text text-anchor="start" x="425.5091" y="-42.4" font-family="sans-serif" font-weight="bold" font-size="14.00" fill="#000000">Legend</text>
<polygon fill="#ffffb3" stroke="transparent" points="212.5,-10 212.5,-30 232.5,-30 232.5,-10 212.5,-10"/>
<text text-anchor="start" x="236.129" y="-15.4" font-family="sans-serif" font-size="14.00" fill="#000000"> &#160;Declarations</text>
<polygon fill="#8dd3c7" stroke="transparent" points="325.5,-10 325.5,-30 345.5,-30 345.5,-10 325.5,-10"/>
<text text-anchor="start" x="349.2251" y="-15.4" font-family="sans-serif" font-size="14.00" fill="#000000"> &#160;Module</text>
<polygon fill="#80b1d3" stroke="transparent" points="411.5,-10 411.5,-30 431.5,-30 431.5,-10 411.5,-10"/>
<text text-anchor="start" x="435.2812" y="-15.4" font-family="sans-serif" font-size="14.00" fill="#000000"> &#160;Bootstrap</text>
<polygon fill="#fdb462" stroke="transparent" points="508.5,-10 508.5,-30 528.5,-30 528.5,-10 508.5,-10"/>
<text text-anchor="start" x="532.1732" y="-15.4" font-family="sans-serif" font-size="14.00" fill="#000000"> &#160;Providers</text>
<polygon fill="#fb8072" stroke="transparent" points="604.5,-10 604.5,-30 624.5,-30 624.5,-10 604.5,-10"/>
<text text-anchor="start" x="628.2258" y="-15.4" font-family="sans-serif" font-size="14.00" fill="#000000"> &#160;Exports</text>
<g id="clust1" class="cluster">
<title>cluster_AppModule</title>
<polygon fill="none" stroke="#000000" stroke-dasharray="1,5" points="8,-70 8,-268 885,-268 885,-70 8,-70"/>
</g>
<g id="clust2" class="cluster">
<title>cluster_AppModule_declarations</title>
<polygon fill="none" stroke="#000000" points="334,-78 334,-130 877,-130 877,-78 334,-78"/>
</g>
<g id="clust7" class="cluster">
<title>cluster_AppModule_imports</title>
<polygon fill="none" stroke="#000000" points="182,-78 182,-130 326,-130 326,-78 182,-78"/>
</g>
<g id="clust9" class="cluster">
<title>cluster_AppModule_bootstrap</title>
<polygon fill="none" stroke="#000000" points="406,-208 406,-260 530,-260 530,-208 406,-208"/>
</g>
<g id="clust10" class="cluster">
<title>cluster_AppModule_providers</title>
<polygon fill="none" stroke="#000000" points="16,-78 16,-130 174,-130 174,-78 16,-78"/>
</g>
<!-- AppComponent -->
<g id="node1" class="node">
<title>AppComponent</title>
<polygon fill="#ffffb3" stroke="#000000" points="868.9399,-122 763.0601,-122 763.0601,-86 868.9399,-86 868.9399,-122"/>
<text text-anchor="middle" x="816" y="-99.8" font-family="Times,serif" font-size="14.00" fill="#000000">AppComponent</text>
</g>
<!-- AppModule -->
<g id="node5" class="node">
<title>AppModule</title>
<polygon fill="#8dd3c7" stroke="#000000" points="509.6571,-187 506.6571,-191 485.6571,-191 482.6571,-187 426.3429,-187 426.3429,-151 509.6571,-151 509.6571,-187"/>
<text text-anchor="middle" x="468" y="-164.8" font-family="Times,serif" font-size="14.00" fill="#000000">AppModule</text>
</g>
<!-- AppComponent&#45;&gt;AppModule -->
<g id="edge1" class="edge">
<title>AppComponent&#45;&gt;AppModule</title>
<path fill="none" stroke="#000000" d="M816,-122.2843C816,-143.3211 816,-175 816,-175 816,-175 519.9769,-175 519.9769,-175"/>
<polygon fill="#000000" stroke="#000000" points="519.977,-171.5001 509.9769,-175 519.9769,-178.5001 519.977,-171.5001"/>
</g>
<!-- AuthorsComponent -->
<g id="node2" class="node">
<title>AuthorsComponent</title>
<polygon fill="#ffffb3" stroke="#000000" points="745.4356,-122 618.5644,-122 618.5644,-86 745.4356,-86 745.4356,-122"/>
<text text-anchor="middle" x="682" y="-99.8" font-family="Times,serif" font-size="14.00" fill="#000000">AuthorsComponent</text>
</g>
<!-- AuthorsComponent&#45;&gt;AppModule -->
<g id="edge2" class="edge">
<title>AuthorsComponent&#45;&gt;AppModule</title>
<path fill="none" stroke="#000000" d="M682,-122.0225C682,-139.3734 682,-163 682,-163 682,-163 519.7694,-163 519.7694,-163"/>
<polygon fill="#000000" stroke="#000000" points="519.7694,-159.5001 509.7694,-163 519.7693,-166.5001 519.7694,-159.5001"/>
</g>
<!-- CoursesComponent -->
<g id="node3" class="node">
<title>CoursesComponent</title>
<polygon fill="#ffffb3" stroke="#000000" points="601.4341,-122 474.5659,-122 474.5659,-86 601.4341,-86 601.4341,-122"/>
<text text-anchor="middle" x="538" y="-99.8" font-family="Times,serif" font-size="14.00" fill="#000000">CoursesComponent</text>
</g>
<!-- CoursesComponent&#45;&gt;AppModule -->
<g id="edge3" class="edge">
<title>CoursesComponent&#45;&gt;AppModule</title>
<path fill="none" stroke="#000000" d="M492.3058,-122.1061C492.3058,-122.1061 492.3058,-140.991 492.3058,-140.991"/>
<polygon fill="#000000" stroke="#000000" points="488.8058,-140.9909 492.3058,-150.991 495.8058,-140.991 488.8058,-140.9909"/>
</g>
<!-- ThingComponent -->
<g id="node4" class="node">
<title>ThingComponent</title>
<polygon fill="#ffffb3" stroke="#000000" points="456.2758,-122 341.7242,-122 341.7242,-86 456.2758,-86 456.2758,-122"/>
<text text-anchor="middle" x="399" y="-99.8" font-family="Times,serif" font-size="14.00" fill="#000000">ThingComponent</text>
</g>
<!-- ThingComponent&#45;&gt;AppModule -->
<g id="edge4" class="edge">
<title>ThingComponent&#45;&gt;AppModule</title>
<path fill="none" stroke="#000000" d="M441.2798,-122.1061C441.2798,-122.1061 441.2798,-140.991 441.2798,-140.991"/>
<polygon fill="#000000" stroke="#000000" points="437.7799,-140.9909 441.2798,-150.991 444.7799,-140.991 437.7799,-140.9909"/>
</g>
<!-- AppComponent  -->
<g id="node7" class="node">
<title>AppComponent </title>
<polygon fill="#80b1d3" stroke="#000000" points="522.439,-252 413.561,-252 413.561,-216 522.439,-216 522.439,-252"/>
<text text-anchor="middle" x="468" y="-229.8" font-family="Times,serif" font-size="14.00" fill="#000000">AppComponent </text>
</g>
<!-- AppModule&#45;&gt;AppComponent  -->
<g id="edge6" class="edge">
<title>AppModule&#45;&gt;AppComponent </title>
<path fill="none" stroke="#000000" stroke-dasharray="1,5" d="M468,-187.1061C468,-187.1061 468,-205.991 468,-205.991"/>
<polygon fill="#000000" stroke="#000000" points="464.5001,-205.9909 468,-215.991 471.5001,-205.991 464.5001,-205.9909"/>
</g>
<!-- AppRoutingModule -->
<g id="node6" class="node">
<title>AppRoutingModule</title>
<polygon fill="#8dd3c7" stroke="#000000" points="318.2744,-122 315.2744,-126 294.2744,-126 291.2744,-122 189.7256,-122 189.7256,-86 318.2744,-86 318.2744,-122"/>
<text text-anchor="middle" x="254" y="-99.8" font-family="Times,serif" font-size="14.00" fill="#000000">AppRoutingModule</text>
</g>
<!-- AppRoutingModule&#45;&gt;AppModule -->
<g id="edge5" class="edge">
<title>AppRoutingModule&#45;&gt;AppModule</title>
<path fill="none" stroke="#000000" d="M254,-122.0225C254,-139.3734 254,-163 254,-163 254,-163 416.2306,-163 416.2306,-163"/>
<polygon fill="#000000" stroke="#000000" points="416.2307,-166.5001 426.2306,-163 416.2306,-159.5001 416.2307,-166.5001"/>
</g>
<!-- AuthorsService -->
<g id="node8" class="node">
<title>AuthorsService</title>
<ellipse fill="#fdb462" stroke="#000000" cx="95" cy="-104" rx="71.2056" ry="18"/>
<text text-anchor="middle" x="95" y="-99.8" font-family="Times,serif" font-size="14.00" fill="#000000">AuthorsService</text>
</g>
<!-- AuthorsService&#45;&gt;AppModule -->
<g id="edge7" class="edge">
<title>AuthorsService&#45;&gt;AppModule</title>
<path fill="none" stroke="#000000" d="M95,-122.2843C95,-143.3211 95,-175 95,-175 95,-175 416.2979,-175 416.2979,-175"/>
<polygon fill="#000000" stroke="#000000" points="416.2979,-178.5001 426.2979,-175 416.2979,-171.5001 416.2979,-178.5001"/>
</g>
</g>
</svg>
